<svg width="28" height="29" viewBox="0 0 28 29" fill="none" xmlns="http://www.w3.org/2000/svg">
<g opacity="0.9">
<path d="M24.0567 15.7483C23.6133 15.7483 23.24 15.41 23.1817 14.9667C22.9017 12.33 21.4783 9.93833 19.285 8.42166C18.8883 8.14166 18.795 7.605 19.0633 7.20833C19.3433 6.81166 19.8917 6.71833 20.2767 6.98666C22.89 8.795 24.57 11.6417 24.9083 14.78C24.955 15.2583 24.6167 15.69 24.1267 15.7483C24.115 15.7483 24.08 15.7483 24.0567 15.7483Z" fill="white"/>
<path d="M4.07156 15.8066C4.03656 15.8066 4.01322 15.8066 3.97822 15.8066C3.49989 15.7482 3.14989 15.3166 3.19656 14.8382C3.51156 11.6999 5.17989 8.86489 7.75822 7.03323C8.15489 6.75323 8.70322 6.84656 8.98322 7.24323C9.26322 7.63989 9.16989 8.18823 8.77322 8.46823C6.60322 9.99656 5.20322 12.3882 4.93489 15.0249C4.89989 15.4682 4.51489 15.8066 4.07156 15.8066Z" fill="white"/>
<path d="M14.0701 26.8785C12.3435 26.8785 10.6985 26.4818 9.15846 25.7118C8.72679 25.4901 8.55179 24.9651 8.77346 24.5335C8.99512 24.1018 9.52012 23.9268 9.95179 24.1485C12.4718 25.4201 15.5051 25.4435 18.0485 24.2185C18.4801 24.0085 19.0051 24.1951 19.2151 24.6268C19.4251 25.0585 19.2385 25.5835 18.8068 25.7935C17.3135 26.5168 15.7268 26.8785 14.0701 26.8785Z" fill="white"/>
<path d="M14.07 10.3468C11.795 10.3468 9.95166 8.50344 9.95166 6.22844C9.95166 3.95344 11.795 2.11011 14.07 2.11011C16.345 2.11011 18.1883 3.95344 18.1883 6.22844C18.1883 8.50344 16.3333 10.3468 14.07 10.3468ZM14.07 3.87177C12.7633 3.87177 11.7017 4.93344 11.7017 6.24011C11.7017 7.54677 12.7633 8.60844 14.07 8.60844C15.3767 8.60844 16.4383 7.54677 16.4383 6.24011C16.4383 4.93344 15.365 3.87177 14.07 3.87177Z" fill="white"/>
<path d="M5.63494 24.6151C3.35993 24.6151 1.5166 22.7718 1.5166 20.4968C1.5166 18.2334 3.35993 16.3784 5.63494 16.3784C7.90994 16.3784 9.75327 18.2218 9.75327 20.4968C9.75327 22.7601 7.90994 24.6151 5.63494 24.6151ZM5.63494 18.1284C4.32827 18.1284 3.2666 19.1901 3.2666 20.4968C3.2666 21.8034 4.32827 22.8651 5.63494 22.8651C6.9416 22.8651 8.00327 21.8034 8.00327 20.4968C8.00327 19.1901 6.9416 18.1284 5.63494 18.1284Z" fill="white"/>
<path d="M22.3649 24.6151C20.0899 24.6151 18.2466 22.7718 18.2466 20.4968C18.2466 18.2334 20.0899 16.3784 22.3649 16.3784C24.6399 16.3784 26.4832 18.2218 26.4832 20.4968C26.4716 22.7601 24.6282 24.6151 22.3649 24.6151ZM22.3649 18.1284C21.0582 18.1284 19.9966 19.1901 19.9966 20.4968C19.9966 21.8034 21.0582 22.8651 22.3649 22.8651C23.6716 22.8651 24.7332 21.8034 24.7332 20.4968C24.7216 19.1901 23.6716 18.1284 22.3649 18.1284Z" fill="white"/>
</g>
</svg>
