<svg width="33" height="27" viewBox="0 0 33 27" fill="none" xmlns="http://www.w3.org/2000/svg">
<g opacity="0.9">
<path d="M32.5694 4.05716L29.8325 2.00446C29.6272 1.84981 29.3494 1.82517 29.1168 1.94012C28.8841 2.05642 28.7378 2.29319 28.7378 2.55183V8.68663C26.4045 7.98185 23.008 7.64521 20.2656 7.48651C20.1958 7.43179 20.115 7.38933 20.0233 7.3647C19.8358 7.31408 19.6457 7.34962 19.4897 7.44546C18.1828 7.37977 17.088 7.35649 16.4216 7.34693V5.63087L18.8848 3.78345C19.0572 3.65483 19.1585 3.45091 19.1585 3.23608C19.1585 3.02125 19.0572 2.81733 18.8848 2.68872L16.1479 0.63602C15.9426 0.481362 15.6634 0.45673 15.4322 0.571681C15.1995 0.687979 15.0531 0.924745 15.0531 1.18338V7.34693C14.3867 7.35649 13.2933 7.38112 11.9877 7.44411C11.8317 7.34969 11.6415 7.31408 11.454 7.36476C11.3624 7.38939 11.2816 7.43179 11.2118 7.48516C7.86459 7.67946 3.5375 8.13657 1.36844 9.20667V6.99938L3.83168 5.15195C4.00411 5.02334 4.10539 4.81942 4.10539 4.60459C4.10539 4.38976 4.00411 4.18584 3.83168 4.05722L1.09473 2.00453C0.889459 1.84987 0.611639 1.82524 0.379043 1.94019C0.146447 2.05649 0 2.29325 0 2.55189V10.7627C0 10.8311 0.00545248 10.8968 0.0177687 10.9625L1.36844 23.0789C1.36844 26.4617 15.1502 26.5 15.7373 26.5C16.3244 26.5 30.1062 26.4617 30.1021 23.1555L31.4569 10.9624C31.4692 10.8967 31.4746 10.8297 31.4746 10.764C31.4746 10.7627 31.4746 10.7627 31.4746 10.7627C31.4746 10.1346 30.9546 9.62273 30.1062 9.20539V6.99938L32.5681 5.15195C32.7419 5.02334 32.8431 4.81942 32.8431 4.60459C32.8431 4.3897 32.7419 4.18584 32.5694 4.05716ZM16.4216 2.55189L17.3343 3.23615L16.4216 3.92034V2.55189ZM1.36844 3.92034L2.28119 4.60459L1.36844 5.28884V3.92034ZM20.3313 8.83994C22.4907 8.96721 24.3148 9.17793 25.7846 9.42426L23.4582 12.3322C23.4363 12.361 23.4281 12.3938 23.4102 12.4253C23.3692 12.4294 23.3281 12.4349 23.2857 12.439C23.1379 12.4554 22.9956 12.4718 22.8437 12.4882C22.5933 12.5129 22.3278 12.5347 22.065 12.558C21.9104 12.5717 21.7626 12.5868 21.6039 12.5991C21.3275 12.6209 21.0346 12.6388 20.7445 12.6579C20.5857 12.6689 20.4325 12.6798 20.2696 12.6894C19.9672 12.7072 19.6497 12.7209 19.3349 12.7346C19.3116 12.7359 19.2898 12.7373 19.2679 12.7373L20.3313 8.83994ZM15.7373 8.70998C16.8635 8.70998 17.9268 8.73186 18.93 8.77156L17.8352 12.7853C17.8105 12.7853 17.7873 12.7866 17.764 12.788C17.6203 12.7922 17.4821 12.7976 17.3357 12.8004C16.8171 12.8099 16.2847 12.8154 15.7374 12.8154C15.1832 12.8154 14.6426 12.81 14.1185 12.8004C13.9543 12.7976 13.8024 12.7908 13.6409 12.7867L12.5461 8.77163C13.5491 8.73186 14.6124 8.70998 15.7373 8.70998ZM11.1461 8.8386L12.2094 12.7374C10.674 12.6703 9.29185 12.5622 8.0671 12.4267C8.04933 12.3952 8.04112 12.3597 8.01783 12.3295L5.69283 9.42426C7.16391 9.178 8.9826 8.96586 11.1461 8.8386ZM1.38762 10.7846C1.58744 10.4753 2.5481 10.0771 4.20116 9.7117C4.22034 9.74865 4.2299 9.78694 4.25729 9.8212L6.14302 12.1777C3.27745 11.7398 1.6367 11.1718 1.38762 10.7846ZM19.1585 25.0426C18.0966 25.0973 16.9621 25.1301 15.7374 25.1301C14.5126 25.1301 13.3795 25.0973 12.3162 25.0426V21.7104C12.3162 21.3327 12.6228 21.0261 13.0005 21.0261H18.4743C18.852 21.0261 19.1585 21.3327 19.1585 21.7104V25.0426ZM28.7419 23.046C28.5065 23.6303 25.6327 24.5732 20.527 24.9578V21.7104C20.527 20.5787 19.606 19.6577 18.4743 19.6577H13.0004C11.8701 19.6577 10.9477 20.5787 10.9477 21.7104V24.9564C5.84198 24.5705 2.9682 23.6208 2.73285 23.0036L1.55594 12.4089C1.58333 12.4213 1.61752 12.4308 1.64492 12.4431C1.85564 12.5348 2.07733 12.6238 2.3182 12.7059C2.33186 12.71 2.34283 12.7154 2.3565 12.7195C2.60968 12.8058 2.88333 12.8838 3.16391 12.9604C3.22415 12.9768 3.28573 12.9933 3.34731 13.0097C3.62782 13.0822 3.91796 13.1506 4.22041 13.2136C4.26833 13.2232 4.31618 13.2328 4.3641 13.2423C4.64192 13.2998 4.92654 13.3532 5.21667 13.4024C5.27691 13.4134 5.33708 13.4243 5.39731 13.4339C5.71477 13.4873 6.0391 13.5366 6.36753 13.5817C6.44277 13.5927 6.51808 13.6023 6.59333 13.6118C6.91765 13.6556 7.24333 13.6967 7.57176 13.7336C7.58683 13.735 7.60184 13.7377 7.61826 13.7391C7.96177 13.7774 8.30662 13.8116 8.64872 13.8445C8.72396 13.8513 8.79786 13.8581 8.87176 13.865C9.20294 13.8951 9.53272 13.9225 9.85705 13.9471C9.91453 13.9512 9.97065 13.9553 10.0281 13.9594C10.3183 13.9813 10.6042 14.0005 10.8848 14.0169C10.9477 14.0224 11.0093 14.0265 11.0709 14.0306C11.376 14.0483 11.6703 14.0648 11.9577 14.0785C12.0329 14.0826 12.1041 14.0854 12.178 14.0895C12.4435 14.1018 12.7022 14.1127 12.9471 14.1223C12.9745 14.1236 13.0032 14.1251 13.0305 14.1251C13.0538 14.1264 13.0729 14.1264 13.0962 14.1278C13.1017 14.1278 13.1058 14.1333 13.1113 14.1333C13.1208 14.1333 13.129 14.1292 13.1387 14.1292C13.3617 14.1374 13.5725 14.1442 13.7722 14.1497C13.8202 14.151 13.8667 14.1524 13.9132 14.1538C14.1335 14.1592 14.3388 14.1648 14.5249 14.1689C14.5755 14.1702 14.618 14.1702 14.6658 14.1716C14.8205 14.1744 14.9601 14.1771 15.0846 14.1785C15.112 14.1785 15.1393 14.1798 15.1639 14.1798C15.298 14.1812 15.4075 14.1826 15.4978 14.1826C15.5416 14.1826 15.5648 14.1826 15.5977 14.1826C15.6579 14.1826 15.7058 14.1826 15.7304 14.1826H15.7373C15.7619 14.1826 15.8139 14.1826 15.8796 14.1826C15.9097 14.1826 15.9302 14.1826 15.9686 14.1826C16.0616 14.1826 16.1752 14.1813 16.3148 14.1798C16.3325 14.1798 16.3517 14.1798 16.3695 14.1785C16.5036 14.1771 16.6555 14.1744 16.8252 14.1716C16.8635 14.1703 16.8963 14.1703 16.9374 14.1703C17.1303 14.1662 17.3452 14.1607 17.5737 14.1552C17.6093 14.1539 17.6449 14.1524 17.6818 14.1524C17.8734 14.147 18.0746 14.1401 18.2866 14.1333C18.3113 14.136 18.3359 14.1428 18.3619 14.1428C18.377 14.1428 18.3893 14.1292 18.4043 14.1292C18.4276 14.1278 18.4481 14.1278 18.4713 14.1264C18.4754 14.1264 18.4782 14.1264 18.4823 14.1264C18.7464 14.1168 19.027 14.1045 19.3157 14.0908C19.3773 14.088 19.4375 14.0854 19.5018 14.0826C19.7974 14.0675 20.1012 14.0511 20.4145 14.0333C20.4638 14.0306 20.5144 14.0265 20.5651 14.0238C20.8607 14.006 21.1617 13.9855 21.4683 13.9622C21.5148 13.9581 21.5599 13.9553 21.6065 13.9526C21.9377 13.928 22.2743 13.8993 22.6123 13.8692C22.6793 13.8637 22.745 13.8569 22.8107 13.85C23.1597 13.8172 23.51 13.783 23.8604 13.7433C23.8658 13.7433 23.8713 13.7419 23.8768 13.7419C24.2162 13.7036 24.5528 13.6612 24.888 13.616C24.9592 13.6064 25.029 13.5968 25.1002 13.5873C25.4314 13.5407 25.7584 13.4915 26.0786 13.4381C26.1361 13.4286 26.1922 13.4176 26.2483 13.408C26.5439 13.3574 26.8326 13.3026 27.1145 13.2452C27.1597 13.2356 27.2062 13.2274 27.25 13.2178C27.5525 13.1534 27.8439 13.085 28.1258 13.0125C28.1874 12.9974 28.2462 12.981 28.3064 12.9646C28.5884 12.8879 28.862 12.8099 29.1152 12.7237C29.1275 12.7196 29.1385 12.7142 29.1521 12.71C29.3944 12.6279 29.6161 12.539 29.8282 12.4473C29.8556 12.435 29.8898 12.4254 29.9172 12.4131L28.7419 23.046ZM30.0159 10.8228C29.9926 10.8461 29.9721 10.868 29.942 10.8913C29.905 10.92 29.8558 10.9488 29.8078 10.9789C29.7696 11.0021 29.734 11.0254 29.6888 11.05C29.63 11.0815 29.5602 11.1129 29.4904 11.1444C29.4384 11.1677 29.3905 11.1909 29.3316 11.2156C29.2523 11.2484 29.1592 11.2812 29.0675 11.3154C29.0018 11.3387 28.9416 11.3633 28.8705 11.3866C28.7692 11.4208 28.6556 11.4536 28.5434 11.4879C28.464 11.5111 28.3901 11.5358 28.3053 11.559C28.1835 11.5932 28.0466 11.6274 27.9125 11.6616C27.8222 11.6849 27.7373 11.7081 27.6416 11.7301C27.4951 11.7657 27.3336 11.7999 27.1735 11.8341C27.075 11.8559 26.9806 11.8779 26.8779 11.8984C26.7069 11.934 26.5208 11.9668 26.3374 12.001C26.2293 12.0216 26.128 12.0407 26.0158 12.0613C25.8283 12.0941 25.6258 12.1256 25.426 12.157C25.3972 12.1611 25.3699 12.1652 25.3425 12.1707L27.2215 9.82242C27.2488 9.78823 27.2584 9.74852 27.2776 9.71157C28.88 10.066 29.8393 10.4519 30.0788 10.7571C30.061 10.7791 30.0392 10.801 30.0159 10.8228ZM30.1062 5.28878V3.92034L31.0189 4.60459L30.1062 5.28878Z" fill="white"/>
</g>
</svg>
