<svg width="31" height="31" viewBox="0 0 31 31" fill="none" xmlns="http://www.w3.org/2000/svg">
<g opacity="0.9">
<path d="M10.3335 7.42725C9.80391 7.42725 9.36475 6.98808 9.36475 6.4585V2.5835C9.36475 2.05391 9.80391 1.61475 10.3335 1.61475C10.8631 1.61475 11.3022 2.05391 11.3022 2.5835V6.4585C11.3022 6.98808 10.8631 7.42725 10.3335 7.42725Z" fill="white"/>
<path d="M20.6665 7.42725C20.1369 7.42725 19.6978 6.98808 19.6978 6.4585V2.5835C19.6978 2.05391 20.1369 1.61475 20.6665 1.61475C21.1961 1.61475 21.6353 2.05391 21.6353 2.5835V6.4585C21.6353 6.98808 21.1961 7.42725 20.6665 7.42725Z" fill="white"/>
<path d="M18.9617 29.3856H10.3333C5.61875 29.3856 2.90625 26.6731 2.90625 21.9585V10.9793C2.90625 6.26475 5.61875 3.55225 10.3333 3.55225H20.6667C25.3813 3.55225 28.0938 6.26475 28.0938 10.9793V17.6056C28.0938 17.9802 27.8741 18.316 27.5512 18.4839C27.2154 18.6389 26.815 18.6001 26.5308 18.3676C24.49 16.7401 21.3513 16.7402 19.3104 18.4064C17.9154 19.5043 17.1275 21.1448 17.1275 22.9402C17.1275 23.9993 17.4117 25.0327 17.9671 25.9239C18.3933 26.6214 18.9229 27.2027 19.5429 27.6419C19.8788 27.8873 20.0338 28.3264 19.9046 28.7268C19.7496 29.1143 19.3879 29.3856 18.9617 29.3856ZM10.3333 5.48975C6.63917 5.48975 4.84375 7.28516 4.84375 10.9793V21.9585C4.84375 25.6527 6.63917 27.4481 10.3333 27.4481H16.6496C16.5204 27.2802 16.4042 27.0994 16.3008 26.9185C15.5646 25.7302 15.1771 24.3481 15.1771 22.9272C15.1771 20.5377 16.2363 18.3418 18.0963 16.8823C20.305 15.0868 23.5729 14.6993 26.1562 15.8876V10.9793C26.1562 7.28516 24.3608 5.48975 20.6667 5.48975H10.3333Z" fill="white"/>
<path d="M16.7915 15.1772H9.0415C8.51192 15.1772 8.07275 14.7381 8.07275 14.2085C8.07275 13.6789 8.51192 13.2397 9.0415 13.2397H16.7915C17.3211 13.2397 17.7603 13.6789 17.7603 14.2085C17.7603 14.7381 17.3211 15.1772 16.7915 15.1772Z" fill="white"/>
<path d="M12.4257 21.6353H9.0415C8.51192 21.6353 8.07275 21.1961 8.07275 20.6665C8.07275 20.1369 8.51192 19.6978 9.0415 19.6978H12.4257C12.9552 19.6978 13.3944 20.1369 13.3944 20.6665C13.3944 21.1961 12.9682 21.6353 12.4257 21.6353Z" fill="white"/>
<path d="M22.9272 30.6771C21.2739 30.6771 19.711 30.1604 18.3935 29.2045C17.5668 28.6104 16.8564 27.8354 16.301 26.9183C15.5647 25.73 15.1772 24.3479 15.1772 22.9271C15.1772 20.5375 16.2364 18.3416 18.0964 16.8821C20.7831 14.6991 25.0197 14.6862 27.7322 16.8433C29.6052 18.3158 30.6772 20.5375 30.6772 22.9271C30.6772 24.3479 30.2898 25.73 29.5535 26.9183C29.1402 27.6288 28.6106 28.2487 28.0035 28.7525C26.6214 29.9925 24.8131 30.6771 22.9272 30.6771ZM22.9272 17.1145C21.6097 17.1145 20.3181 17.5666 19.2977 18.3933C17.9027 19.4912 17.1147 21.1316 17.1147 22.9271C17.1147 23.9862 17.3989 25.0195 17.9543 25.9108C18.3806 26.6083 18.9102 27.1896 19.5302 27.6287C20.5247 28.3521 21.7002 28.7396 22.9272 28.7396C24.361 28.7396 25.6785 28.2358 26.7377 27.2929C27.2027 26.9054 27.5772 26.4533 27.8872 25.9237C28.4427 25.0196 28.7397 23.9862 28.7397 22.9271C28.7397 21.1316 27.9389 19.4783 26.531 18.3674C25.4977 17.5408 24.2577 17.1145 22.9272 17.1145Z" fill="white"/>
<path d="M22.9269 27.1248C22.3973 27.1248 21.9582 26.6857 21.9582 26.1561C21.9582 24.9161 20.9378 23.8957 19.6978 23.8957C19.1682 23.8957 18.729 23.4565 18.729 22.9269C18.729 22.3973 19.1682 21.9582 19.6978 21.9582C20.9378 21.9582 21.9582 20.9378 21.9582 19.6978C21.9582 19.1682 22.3973 18.729 22.9269 18.729C23.4565 18.729 23.8957 19.1682 23.8957 19.6978C23.8957 20.9378 24.9161 21.9582 26.1561 21.9582C26.6857 21.9582 27.1248 22.3973 27.1248 22.9269C27.1248 23.4565 26.6857 23.8957 26.1561 23.8957C24.9161 23.8957 23.8957 24.9161 23.8957 26.1561C23.8957 26.6857 23.4565 27.1248 22.9269 27.1248ZM22.3715 22.9269C22.5653 23.0948 22.759 23.2757 22.9269 23.4823C23.0948 23.2886 23.2757 23.0948 23.4823 22.9269C23.2886 22.759 23.0948 22.5782 22.9269 22.3715C22.759 22.5782 22.5782 22.759 22.3715 22.9269Z" fill="white"/>
</g>
</svg>
