<svg width="31" height="31" viewBox="0 0 31 31" fill="none" xmlns="http://www.w3.org/2000/svg">
<g clip-path="url(#clip0_201_1730)">
<path opacity="0.5" d="M16.7299 28.6182L17.4012 27.4849C17.9219 26.6057 18.1823 26.1661 18.6005 25.923C19.0187 25.68 19.5452 25.6709 20.5982 25.6527C22.153 25.626 23.128 25.5309 23.9457 25.1924C25.463 24.5644 26.6685 23.3597 27.2969 21.8435C27.5282 21.2854 27.6461 20.6537 27.706 19.8144C27.7379 19.3697 27.7537 19.1474 27.635 18.9695C27.5164 18.7915 27.2911 18.716 26.8404 18.565C24.9508 17.9317 20.573 16.3206 18.125 14.251C15.3656 11.918 12.8973 7.17549 12.014 5.35768C11.8384 4.99631 11.7506 4.81562 11.5964 4.72027C11.4423 4.62492 11.2468 4.62698 10.8558 4.63112C8.31295 4.65797 7.16144 4.79873 5.95671 5.53648C5.12354 6.04671 4.42304 6.74674 3.91246 7.57936C3 9.06734 3 11.0929 3 15.144V16.3816C3 19.2647 3 20.7064 3.47134 21.8435C4.0998 23.3597 5.30524 24.5644 6.82246 25.1924C7.64019 25.5309 8.61524 25.626 10.1699 25.6527C11.223 25.6709 11.7495 25.68 12.1677 25.923C12.5859 26.1661 12.8463 26.6057 13.367 27.4849L14.0384 28.6182C14.6368 29.6285 16.1315 29.6285 16.7299 28.6182Z" fill="white"/>
<path fill-rule="evenodd" clip-rule="evenodd" d="M19.0899 0.799035C19.5091 1.19428 19.5049 1.83114 19.0804 2.2215L17.7028 3.48833C18.9013 3.4996 20.0541 3.5268 21.0945 3.59235C21.9891 3.64873 22.827 3.73487 23.5571 3.87011C24.2723 4.00257 24.9613 4.19551 25.5086 4.50389C26.5258 5.07708 27.3823 5.86426 28.0073 6.80196C28.6084 7.7041 28.8733 8.7238 29.0004 9.95345C29.1248 11.1565 29.1248 12.6599 29.1248 14.5662V14.6191C29.1248 15.1746 28.6411 15.625 28.0444 15.625C27.4478 15.625 26.964 15.1746 26.964 14.6191C26.964 12.6482 26.9629 11.2416 26.8496 10.1462C26.738 9.06635 26.5251 8.39377 26.1711 7.86256C25.7271 7.19619 25.117 6.6347 24.3898 6.22491C24.1576 6.09411 23.7539 5.95769 23.1355 5.84314C22.5321 5.73136 21.7959 5.65285 20.9486 5.59946C19.9698 5.53779 18.8781 5.51151 17.7204 5.50032L19.0804 6.75085C19.5049 7.14122 19.5091 7.77807 19.0899 8.17331C18.6705 8.56856 17.9865 8.57251 17.562 8.18215L14.321 5.20183C14.1154 5.01284 13.9998 4.75511 13.9998 4.48618C13.9998 4.21724 14.1154 3.95951 14.321 3.77052L17.562 0.790206C17.9865 0.399843 18.6705 0.403796 19.0899 0.799035Z" fill="white"/>
</g>
<defs>
<clipPath id="clip0_201_1730">
<rect width="30" height="30" fill="white" transform="translate(0.5 0.5)"/>
</clipPath>
</defs>
</svg>
