<svg width="46" height="45" viewBox="0 0 46 45" fill="none" xmlns="http://www.w3.org/2000/svg">
<g filter="url(#filter0_d_261_240)">
<path d="M40.6034 26.903C41.3168 26.903 41.9039 27.4843 41.8112 28.1916C41.2145 32.748 37.4962 36.3611 32.8212 36.9172C32.1296 36.9995 31.5624 36.427 31.5624 35.7305V35.7305C31.5624 35.034 32.1307 34.48 32.8188 34.3721C36.0899 33.8594 38.6522 31.374 39.2022 28.1888C39.3236 27.4859 39.8901 26.903 40.6034 26.903V26.903ZM5.30019 10.0886C4.58687 10.0886 3.99974 9.50726 4.09238 8.79998C4.68917 4.24357 8.40743 0.630494 13.0824 0.0743607C13.774 -0.00791115 14.3413 0.564603 14.3413 1.26108V1.26108C14.3413 1.95755 13.7729 2.51161 13.0848 2.61946C9.81378 3.13216 7.25139 5.61757 6.70139 8.80278C6.58002 9.50569 6.01351 10.0886 5.30019 10.0886V10.0886ZM16.0634 5.58237L8.15889 13.317C2.6137 18.7312 2.6137 27.5251 8.15889 32.9393C13.7041 38.3536 22.7107 38.3536 28.2559 32.9393L40.4312 21.018C41.2751 20.2277 41.2751 18.8993 40.4312 18.0754C40.2313 17.8797 39.9937 17.7244 39.7322 17.6185C39.4707 17.5125 39.1903 17.458 38.9072 17.458C38.624 17.458 38.3436 17.5125 38.0821 17.6185C37.8206 17.7244 37.583 17.8797 37.3831 18.0754L30.3681 24.9247C30.0363 25.2488 29.5065 25.2488 29.1746 24.9247V24.9247C28.8314 24.5896 28.8314 24.0375 29.1746 23.7024L39.8113 13.317C40.6551 12.4931 40.6551 11.1647 39.8113 10.3408C38.9674 9.51693 37.5897 9.51693 36.7287 10.3408L27.3365 19.5744C26.9985 19.9066 26.4547 19.8998 26.1251 19.5594V19.5594C25.7986 19.2221 25.8058 18.6846 26.1412 18.3562L37.3659 7.36469C38.2097 6.54079 38.2097 5.21245 37.3659 4.38855C36.522 3.56464 35.1616 3.56464 34.3177 4.38855L23.0402 15.3997C22.7127 15.7195 22.1903 15.7214 21.8606 15.4039V15.4039C21.5155 15.0718 21.5141 14.52 21.8573 14.1861L30.7013 5.58237C31.5624 4.75846 31.5624 3.43013 30.7013 2.60623C29.8403 1.78232 28.497 1.78232 27.6532 2.60623L18.0174 12.0144C16.0366 13.9484 16.1395 17.1998 15.9627 19.9625V19.9625C15.8758 21.3205 15.37 22.6141 14.5218 23.6778C14.2324 24.0406 13.6972 24.0378 13.3651 23.7136V23.7136C13.0221 23.3787 13.029 22.8302 13.3093 22.4413C13.9178 21.5971 14.2506 20.5844 14.2506 19.5383C14.2506 18.2015 13.7072 16.9195 12.7397 15.9736V15.9736C12.4092 15.6509 12.4092 15.1194 12.7397 14.7966L19.146 8.54169C19.9898 7.71779 19.9898 6.38946 19.146 5.56555C18.2849 4.75846 16.9244 4.75846 16.0634 5.58237Z" fill="white"/>
</g>
<defs>
<filter id="filter0_d_261_240" x="0" y="0.0664673" width="45.8209" height="44.9335" filterUnits="userSpaceOnUse" color-interpolation-filters="sRGB">
<feFlood flood-opacity="0" result="BackgroundImageFix"/>
<feColorMatrix in="SourceAlpha" type="matrix" values="0 0 0 0 0 0 0 0 0 0 0 0 0 0 0 0 0 0 127 0" result="hardAlpha"/>
<feOffset dy="4"/>
<feGaussianBlur stdDeviation="2"/>
<feComposite in2="hardAlpha" operator="out"/>
<feColorMatrix type="matrix" values="0 0 0 0 0 0 0 0 0 0 0 0 0 0 0 0 0 0 0.05 0"/>
<feBlend mode="normal" in2="BackgroundImageFix" result="effect1_dropShadow_261_240"/>
<feBlend mode="normal" in="SourceGraphic" in2="effect1_dropShadow_261_240" result="shape"/>
</filter>
</defs>
</svg>
