<svg width="29" height="29" viewBox="0 0 29 29" fill="none" xmlns="http://www.w3.org/2000/svg">
<g opacity="0.8" clip-path="url(#clip0_201_1727)">
<path d="M4.83342 2.41675C3.50425 2.41675 2.41675 3.50425 2.41675 4.83342V20.5417C2.41675 21.8709 3.50425 22.9584 4.83342 22.9584H12.0834V24.1668H7.25008V26.5834H21.7501V24.1668H16.9167V22.9584H24.1668C25.4959 22.9584 26.5834 21.8709 26.5834 20.5417V4.83342C26.5834 3.50425 25.4959 2.41675 24.1668 2.41675H4.83342ZM4.83342 4.83342H24.1668V20.5417H4.83342V4.83342ZM14.5001 6.04175C13.1709 6.04175 12.0834 7.12925 12.0834 8.45842C12.0834 9.78758 13.1709 10.8751 14.5001 10.8751C15.8292 10.8751 16.9167 9.78758 16.9167 8.45842C16.9167 7.12925 15.8292 6.04175 14.5001 6.04175ZM12.0834 12.0834C10.7542 12.0834 9.66675 13.1709 9.66675 14.5001V15.7084H19.3334V14.5001C19.3334 13.1709 18.2459 12.0834 16.9167 12.0834H12.0834ZM6.04175 16.9167V19.3334H10.8751V16.9167H6.04175ZM12.0834 16.9167V19.3334H16.9167V16.9167H12.0834ZM18.1251 16.9167V19.3334H22.9584V16.9167H18.1251Z" fill="white"/>
</g>
<defs>
<clipPath id="clip0_201_1727">
<rect width="29" height="29" fill="white"/>
</clipPath>
</defs>
</svg>
