<svg width="61" height="53" viewBox="0 0 61 53" fill="none" xmlns="http://www.w3.org/2000/svg">
<path d="M33.5982 0L11.0432 23.4402H50.4513L19.7055 21.0267L33.5982 0Z" fill="url(#paint0_linear_191_355)"/>
<path d="M33.5982 0L15.7678 22.1248L50.4513 23.4402L19.7055 21.0267L33.5982 0Z" fill="url(#paint1_linear_191_355)"/>
<path d="M19.7055 21.0267L33.5982 0L11.0432 23.4402L19.7055 21.0267Z" fill="url(#paint2_linear_191_355)"/>
<path d="M19.7055 21.0267L33.5982 0L15.7678 22.1248L19.7055 21.0267Z" fill="url(#paint3_linear_191_355)"/>
<path d="M40.5815 4.02917L32.8481 16.4542L49.7637 18.0041L39.4621 14.3266L40.5815 4.02917Z" fill="url(#paint4_linear_191_355)"/>
<path d="M40.5814 4.02917L36.0784 15.4133L49.7637 18.0041L39.462 14.3266L40.5814 4.02917Z" fill="url(#paint5_linear_191_355)"/>
<path d="M39.4621 14.3266L40.5815 4.02917L32.8481 16.4542L39.4621 14.3266Z" fill="url(#paint6_linear_191_355)"/>
<path d="M39.462 14.3266L40.5814 4.02917L36.0784 15.4133L39.462 14.3266Z" fill="url(#paint7_linear_191_355)"/>
<path opacity="0.2" d="M29.0839 18.0784L39.8884 0.20874H36.3882L23.4871 19.7542L54.9772 22.3679V20.4491L29.0839 18.0784Z" fill="url(#paint8_linear_191_355)"/>
<path d="M27.7884 53L50.3434 29.5569H10.9353L41.6811 31.9733L27.7884 53Z" fill="url(#paint9_linear_191_355)"/>
<path d="M27.7884 53L45.6187 30.8752L10.9353 29.5569L41.6811 31.9733L27.7884 53Z" fill="url(#paint10_linear_191_355)"/>
<path d="M41.681 31.9733L27.7883 53L50.3434 29.5569L41.681 31.9733Z" fill="url(#paint11_linear_191_355)"/>
<path d="M41.681 31.9733L27.7883 53L45.6187 30.8752L41.681 31.9733Z" fill="url(#paint12_linear_191_355)"/>
<path d="M20.805 48.9679L28.5384 36.5429L11.6228 34.9959L21.9244 38.6733L20.805 48.9679Z" fill="url(#paint13_linear_191_355)"/>
<path d="M20.805 48.9679L25.3053 37.5838L11.6228 34.9959L21.9244 38.6733L20.805 48.9679Z" fill="url(#paint14_linear_191_355)"/>
<path d="M21.9243 38.6733L20.8049 48.9679L28.5382 36.5429L21.9243 38.6733Z" fill="url(#paint15_linear_191_355)"/>
<path d="M21.9243 38.6733L20.8049 48.9679L25.3051 37.5838L21.9243 38.6733Z" fill="url(#paint16_linear_191_355)"/>
<path opacity="0.2" d="M32.3027 34.9216L21.4982 52.7884H24.9955L37.8967 33.2458L6.40942 30.6321V32.5509L32.3027 34.9216Z" fill="url(#paint17_linear_191_355)"/>
<path opacity="0.2" d="M61 26.0024H0V26.9147H61V26.0024Z" fill="url(#paint18_linear_191_355)"/>
<defs>
<linearGradient id="paint0_linear_191_355" x1="10.8699" y1="11.7215" x2="47.2438" y2="11.7215" gradientUnits="userSpaceOnUse">
<stop offset="0.01" stop-color="#E7D700"/>
<stop offset="0.48" stop-color="#5CAF64"/>
<stop offset="1" stop-color="#4F6F52"/>
</linearGradient>
<linearGradient id="paint1_linear_191_355" x1="52.9684" y1="20.8008" x2="5.99345" y2="4.83715" gradientUnits="userSpaceOnUse">
<stop offset="0.01" stop-color="#E7D700"/>
<stop offset="0.48" stop-color="#5CAF64"/>
<stop offset="1" stop-color="#4F6F52"/>
</linearGradient>
<linearGradient id="paint2_linear_191_355" x1="22.3193" y1="2.77382" x2="22.3193" y2="31.7188" gradientUnits="userSpaceOnUse">
<stop offset="0.01" stop-color="#E7D700"/>
<stop offset="0.48" stop-color="#5CAF64"/>
<stop offset="1" stop-color="#4F6F52"/>
</linearGradient>
<linearGradient id="paint3_linear_191_355" x1="24.683" y1="22.8683" x2="24.683" y2="-0.583361" gradientUnits="userSpaceOnUse">
<stop offset="0.01" stop-color="#E7D700"/>
<stop offset="0.48" stop-color="#5CAF64"/>
<stop offset="1" stop-color="#4F6F52"/>
</linearGradient>
<linearGradient id="paint4_linear_191_355" x1="39.9621" y1="14.0492" x2="42.4038" y2="19.757" gradientUnits="userSpaceOnUse">
<stop stop-color="#E7D700"/>
<stop offset="0.36" stop-color="#5CAF64"/>
<stop offset="1" stop-color="#4F6F52"/>
</linearGradient>
<linearGradient id="paint5_linear_191_355" x1="48.4994" y1="16.0767" x2="38.2889" y2="9.77941" gradientUnits="userSpaceOnUse">
<stop stop-color="#E7D700"/>
<stop offset="0.36" stop-color="#5CAF64"/>
<stop offset="1" stop-color="#4F6F52"/>
</linearGradient>
<linearGradient id="paint6_linear_191_355" x1="37.0415" y1="7.43211" x2="36.135" y2="15.4634" gradientUnits="userSpaceOnUse">
<stop stop-color="#E7D700"/>
<stop offset="0.36" stop-color="#5CAF64"/>
<stop offset="1" stop-color="#4F6F52"/>
</linearGradient>
<linearGradient id="paint7_linear_191_355" x1="40.4536" y1="15.4133" x2="37.8788" y2="8.59843" gradientUnits="userSpaceOnUse">
<stop stop-color="#E7D700"/>
<stop offset="0.36" stop-color="#5CAF64"/>
<stop offset="1" stop-color="#4F6F52"/>
</linearGradient>
<linearGradient id="paint8_linear_191_355" x1="27.4872" y1="26.5772" x2="44.1962" y2="12.7208" gradientUnits="userSpaceOnUse">
<stop stop-color="white"/>
<stop offset="1" stop-color="white" stop-opacity="0"/>
</linearGradient>
<linearGradient id="paint9_linear_191_355" x1="30.3368" y1="28.3816" x2="33.368" y2="40.065" gradientUnits="userSpaceOnUse">
<stop offset="0.01" stop-color="#E7D700"/>
<stop offset="0.48" stop-color="#5CAF64"/>
<stop offset="1" stop-color="#4F6F52"/>
</linearGradient>
<linearGradient id="paint10_linear_191_355" x1="42.9112" y1="44.1924" x2="13.767" y2="33.7445" gradientUnits="userSpaceOnUse">
<stop offset="0.01" stop-color="#E7D700"/>
<stop offset="0.48" stop-color="#5CAF64"/>
<stop offset="1" stop-color="#4F6F52"/>
</linearGradient>
<linearGradient id="paint11_linear_191_355" x1="43.4425" y1="28.2987" x2="35.7851" y2="50.7105" gradientUnits="userSpaceOnUse">
<stop offset="0.01" stop-color="#E7D700"/>
<stop offset="0.48" stop-color="#5CAF64"/>
<stop offset="1" stop-color="#4F6F52"/>
</linearGradient>
<linearGradient id="paint12_linear_191_355" x1="36.7234" y1="51.1269" x2="36.663" y2="26.0281" gradientUnits="userSpaceOnUse">
<stop offset="0.01" stop-color="#E7D700"/>
<stop offset="0.48" stop-color="#5CAF64"/>
<stop offset="1" stop-color="#4F6F52"/>
</linearGradient>
<linearGradient id="paint13_linear_191_355" x1="21.4216" y1="38.9479" x2="18.9799" y2="33.2401" gradientUnits="userSpaceOnUse">
<stop stop-color="#E7D700"/>
<stop offset="0.36" stop-color="#5CAF64"/>
<stop offset="1" stop-color="#4F6F52"/>
</linearGradient>
<linearGradient id="paint14_linear_191_355" x1="12.8871" y1="36.9204" x2="23.0948" y2="43.2177" gradientUnits="userSpaceOnUse">
<stop stop-color="#E7D700"/>
<stop offset="0.36" stop-color="#5CAF64"/>
<stop offset="1" stop-color="#4F6F52"/>
</linearGradient>
<linearGradient id="paint15_linear_191_355" x1="24.342" y1="45.565" x2="25.2514" y2="37.5365" gradientUnits="userSpaceOnUse">
<stop stop-color="#E7D700"/>
<stop offset="0.36" stop-color="#5CAF64"/>
<stop offset="1" stop-color="#4F6F52"/>
</linearGradient>
<linearGradient id="paint16_linear_191_355" x1="20.9328" y1="37.5838" x2="23.5076" y2="44.3987" gradientUnits="userSpaceOnUse">
<stop stop-color="#5CAF64"/>
<stop offset="0.36" stop-color="#E7D700"/>
<stop offset="1" stop-color="#4F6F52"/>
</linearGradient>
<linearGradient id="paint17_linear_191_355" x1="29.223" y1="25.3476" x2="16.2653" y2="40.8294" gradientUnits="userSpaceOnUse">
<stop stop-color="white"/>
<stop offset="1" stop-color="white" stop-opacity="0"/>
</linearGradient>
<linearGradient id="paint18_linear_191_355" x1="0" y1="26.4571" x2="0.284104" y2="26.4571" gradientUnits="userSpaceOnUse">
<stop stop-color="white" stop-opacity="0"/>
<stop offset="0.5" stop-color="white"/>
<stop offset="1" stop-color="white" stop-opacity="0"/>
</linearGradient>
</defs>
</svg>
