<svg width="29" height="27" viewBox="0 0 29 27" fill="none" xmlns="http://www.w3.org/2000/svg">
<path d="M2.22623 1.54991L0.902481 6.49308C0.714245 7.18577 0.698968 7.90954 0.857827 8.60861C1.01669 9.30768 1.34544 9.96335 1.81873 10.5251C1.93672 10.6481 2.06191 10.765 2.19373 10.8751V25.1667C2.19373 25.4762 2.32543 25.7729 2.55985 25.9917C2.79427 26.2105 3.11221 26.3334 3.44373 26.3334H17.375C17.7065 26.3334 18.0244 26.2105 18.2589 25.9917C18.4933 25.7729 18.625 25.4762 18.625 25.1667C18.625 24.8573 18.4933 24.5606 18.2589 24.3418C18.0244 24.123 17.7065 24.0001 17.375 24.0001H4.68873V12.2167C5.57568 12.4065 6.50155 12.3642 7.36435 12.0943C8.22715 11.8244 8.99341 11.3375 9.57873 10.6872C9.61623 10.7281 9.64248 10.7759 9.68123 10.8156C10.1535 11.2935 10.7265 11.675 11.3643 11.9362C12.0021 12.1974 12.691 12.3326 13.3875 12.3334H13.4912C14.1875 12.3328 14.876 12.1977 15.5137 11.9367C16.1513 11.6757 16.7241 11.2944 17.1962 10.8167C17.235 10.7771 17.2612 10.7281 17.2987 10.6872C17.884 11.3376 18.6502 11.8246 19.513 12.0945C20.3759 12.3644 21.3018 12.4067 22.1887 12.2167V14.6667C22.1887 14.9762 22.3204 15.2729 22.5548 15.4917C22.7893 15.7105 23.1072 15.8334 23.4387 15.8334C23.7702 15.8334 24.0882 15.7105 24.3226 15.4917C24.557 15.2729 24.6887 14.9762 24.6887 14.6667V10.8774C24.8205 10.7673 24.9457 10.6504 25.0637 10.5274C25.537 9.96568 25.8658 9.31001 26.0246 8.61094C26.1835 7.91188 26.1682 7.1881 25.98 6.49541L24.6512 1.54991C24.5835 1.29763 24.4274 1.07369 24.2077 0.913679C23.9881 0.753667 23.7174 0.666755 23.4387 0.666748H3.43873C3.16007 0.666755 2.8894 0.753667 2.66972 0.913679C2.45004 1.07369 2.29395 1.29763 2.22623 1.54991ZM22.4625 3.00008L23.55 7.05892C23.6437 7.40788 23.6509 7.77219 23.5711 8.12414C23.4912 8.47609 23.3264 8.80641 23.0893 9.08999C22.8521 9.37357 22.5487 9.60293 22.2023 9.76064C21.8558 9.91834 21.4754 10.0002 21.09 10.0001C20.4549 9.9969 19.8439 9.77274 19.3765 9.37143C18.909 8.97012 18.6188 8.42052 18.5625 7.83008L18.1312 3.00008H22.4625ZM11.25 3.00008H15.625L16.0212 7.43342C16.0505 7.76007 16.0067 8.08883 15.8929 8.3989C15.779 8.70898 15.5974 8.99364 15.3596 9.23487C15.1218 9.4761 14.833 9.66866 14.5114 9.80037C14.1898 9.93209 13.8424 10.0001 13.4912 10.0001H13.3875C13.0371 10.0002 12.6905 9.93253 12.3696 9.80135C12.0487 9.67016 11.7604 9.47831 11.5229 9.2379C11.2854 8.9975 11.1039 8.71375 10.9898 8.40457C10.8757 8.09539 10.8315 7.7675 10.86 7.44158L11.25 3.00008ZM8.74998 3.00008L8.73498 3.15641L8.36998 7.23975L8.31873 7.82308C8.26414 8.41517 7.97431 8.96681 7.50618 9.36963C7.03805 9.77244 6.42545 9.99732 5.78873 10.0001C5.40326 10.0002 5.02283 9.91827 4.67636 9.76057C4.32988 9.60288 4.02648 9.37354 3.78921 9.09C3.55193 8.80646 3.38702 8.47617 3.30702 8.12423C3.22701 7.77229 3.23401 7.40795 3.32748 7.05892L4.41498 3.00008H8.74998ZM28.1562 20.9901C27.6812 23.2814 23.875 25.2636 23.875 25.2636C23.875 25.2636 20.0687 23.2803 19.5937 20.9901C19.1237 18.7279 20.505 17.5507 21.9312 17.5507C22.3123 17.5282 22.6929 17.6003 23.0343 17.7598C23.3758 17.9192 23.6658 18.1603 23.875 18.4584C24.0841 18.1603 24.3742 17.9192 24.7156 17.7598C25.0571 17.6003 25.4377 17.5282 25.8187 17.5507C27.25 17.5507 28.625 18.7279 28.1562 20.9901Z" fill="white"/>
</svg>
