<svg width="29" height="29" viewBox="0 0 29 29" fill="none" xmlns="http://www.w3.org/2000/svg">
<g opacity="0.9">
<path d="M21.1969 27.0417H14.8036C14.3253 27.0417 13.9286 26.6451 13.9286 26.1667C13.9286 25.6884 14.3253 25.2917 14.8036 25.2917H21.1969C23.1336 25.2917 24.7086 23.7167 24.7086 21.7801V21.2667H23.3669C21.6053 21.2667 20.1119 19.9601 19.9719 18.2801C19.8786 17.3117 20.2286 16.3668 20.9286 15.6784C21.5236 15.0718 22.3403 14.7334 23.2153 14.7334H24.6969V13.9284C24.6969 11.9918 23.1219 10.4167 21.1853 10.4167H7.79193C5.85527 10.4167 4.28027 11.9918 4.28027 13.9284V15.9467C4.28027 16.4251 3.88361 16.8217 3.40527 16.8217C2.92694 16.8217 2.53027 16.4251 2.53027 15.9467V13.9284C2.53027 11.0234 4.88693 8.66675 7.79193 8.66675H21.1853C24.0903 8.66675 26.4469 11.0234 26.4469 13.9284V15.6084C26.4469 16.0868 26.0503 16.4834 25.5719 16.4834H23.2153C22.8069 16.4834 22.4336 16.6351 22.1653 16.9151C21.8269 17.2418 21.6636 17.6851 21.7103 18.1284C21.7803 18.8984 22.5153 19.5167 23.3553 19.5167H25.5719C26.0503 19.5167 26.4469 19.9134 26.4469 20.3917V21.7801C26.4586 24.6851 24.1019 27.0417 21.1969 27.0417Z" fill="white"/>
<path d="M3.41675 15.8533C2.93841 15.8533 2.54175 15.4566 2.54175 14.9783V9.64666C2.54175 7.90832 3.63842 6.33326 5.26008 5.71493L14.5234 2.21492C15.4801 1.85326 16.5418 1.98165 17.3701 2.56498C18.2101 3.14832 18.7001 4.09331 18.7001 5.10831V9.54163C18.7001 10.02 18.3034 10.4166 17.8251 10.4166C17.3468 10.4166 16.9501 10.02 16.9501 9.54163V5.10831C16.9501 4.66497 16.7401 4.25663 16.3668 3.99996C15.9934 3.74329 15.5501 3.68495 15.1301 3.84829L5.86676 7.34829C4.92176 7.70995 4.28009 8.63166 4.28009 9.64666V14.9783C4.29175 15.4683 3.89508 15.8533 3.41675 15.8533Z" fill="white"/>
<path d="M23.3666 21.2667C21.605 21.2667 20.1116 19.96 19.9716 18.28C19.8783 17.3117 20.2283 16.3667 20.9283 15.6784C21.5233 15.0717 22.34 14.7334 23.215 14.7334H25.6416C26.7966 14.7684 27.6833 15.6783 27.6833 16.7983V19.2018C27.6833 20.3218 26.7966 21.2317 25.6766 21.2667H23.3666ZM25.6183 16.4834H23.2266C22.8183 16.4834 22.445 16.6351 22.1766 16.9151C21.8383 17.2417 21.675 17.685 21.7216 18.1284C21.7916 18.8984 22.5266 19.5167 23.3666 19.5167H25.6533C25.805 19.5167 25.945 19.3768 25.945 19.2018V16.7983C25.945 16.6233 25.805 16.4951 25.6183 16.4834Z" fill="white"/>
<path d="M16.8334 15.375H8.66675C8.18841 15.375 7.79175 14.9783 7.79175 14.5C7.79175 14.0217 8.18841 13.625 8.66675 13.625H16.8334C17.3117 13.625 17.7084 14.0217 17.7084 14.5C17.7084 14.9783 17.3117 15.375 16.8334 15.375Z" fill="white"/>
<path d="M11.5833 23.4717C11.105 23.4717 10.7083 23.075 10.7083 22.5967V21.1033C10.7083 20.8466 10.4983 20.625 10.23 20.625H4C3.52167 20.625 3.125 20.2283 3.125 19.75C3.125 19.2717 3.52167 18.875 4 18.875H10.23C11.455 18.875 12.4583 19.8783 12.4583 21.1033V22.5967C12.4583 23.075 12.0617 23.4717 11.5833 23.4717Z" fill="white"/>
<path d="M5.42335 22.0483C5.20168 22.0483 4.98001 21.9667 4.80501 21.7917L3.38168 20.3684C3.04335 20.03 3.04335 19.47 3.38168 19.1316L4.80501 17.7083C5.14335 17.37 5.70334 17.37 6.04168 17.7083C6.38001 18.0467 6.38001 18.6067 6.04168 18.945L5.23668 19.75L6.04168 20.555C6.38001 20.8933 6.38001 21.4533 6.04168 21.7917C5.86668 21.9667 5.64501 22.0483 5.42335 22.0483Z" fill="white"/>
<path d="M11.5833 26.7851H5.35334C4.12834 26.7851 3.125 25.7818 3.125 24.5568V23.0635C3.125 22.5851 3.52167 22.1885 4 22.1885C4.47833 22.1885 4.875 22.5851 4.875 23.0635V24.5568C4.875 24.8134 5.085 25.0351 5.35334 25.0351H11.5833C12.0617 25.0351 12.4583 25.4318 12.4583 25.9101C12.4583 26.3885 12.0617 26.7851 11.5833 26.7851Z" fill="white"/>
<path d="M10.1602 28.2082C9.9385 28.2082 9.71684 28.1266 9.54184 27.9516C9.2035 27.6133 9.2035 27.0532 9.54184 26.7149L10.3468 25.9099L9.54184 25.1049C9.2035 24.7666 9.2035 24.2066 9.54184 23.8683C9.88017 23.5299 10.4402 23.5299 10.7785 23.8683L12.2018 25.2916C12.5402 25.6299 12.5402 26.1899 12.2018 26.5282L10.7785 27.9516C10.6152 28.1266 10.3818 28.2082 10.1602 28.2082Z" fill="white"/>
</g>
</svg>
