<svg width="28" height="29" viewBox="0 0 28 29" fill="none" xmlns="http://www.w3.org/2000/svg">
<path d="M13.9997 25.7584C13.743 25.7584 13.358 25.7351 12.9963 25.6068C8.53967 24.0784 1.45801 18.6651 1.45801 10.6384C1.45801 6.55506 4.75967 3.2417 8.81967 3.2417C10.7913 3.2417 12.6347 4.01173 13.9997 5.3884C15.3647 4.01173 17.208 3.2417 19.1797 3.2417C23.2397 3.2417 26.5413 6.55506 26.5413 10.6384C26.5413 12.0501 26.3313 13.4384 25.9113 14.7684C25.7713 15.2234 25.2697 15.4917 24.8147 15.34C24.348 15.2 24.103 14.6984 24.243 14.2434C24.6047 13.0884 24.7913 11.8751 24.7913 10.6501C24.7913 7.53508 22.2713 5.00338 19.1797 5.00338C17.4063 5.00338 15.7613 5.8317 14.6997 7.25504C14.373 7.69837 13.6263 7.69837 13.2997 7.25504C12.2263 5.82004 10.593 5.00338 8.81967 5.00338C5.728 5.00338 3.20801 7.53508 3.20801 10.6501C3.20801 18.6301 10.873 23.0517 13.568 23.9734C13.638 23.9967 13.8013 24.0317 13.9997 24.0317C14.478 24.0317 14.8747 24.4284 14.8747 24.9067C14.8747 25.385 14.478 25.7584 13.9997 25.7584Z" fill="white"/>
<path d="M20.6972 25.8754C18.1539 25.8754 16.0889 23.8104 16.0889 21.267C16.0889 18.7237 18.1539 16.6587 20.6972 16.6587C23.2405 16.6587 25.3055 18.7237 25.3055 21.267C25.3055 23.8104 23.2405 25.8754 20.6972 25.8754ZM20.6972 18.4087C19.1222 18.4087 17.8389 19.692 17.8389 21.267C17.8389 22.842 19.1222 24.1254 20.6972 24.1254C22.2722 24.1254 23.5555 22.842 23.5555 21.267C23.5555 19.692 22.2722 18.4087 20.6972 18.4087Z" fill="white"/>
<path d="M25.1301 26.5748C24.9084 26.5748 24.6867 26.4932 24.5117 26.3182L23.3451 25.1515C23.0067 24.8132 23.0067 24.2532 23.3451 23.9149C23.6834 23.5765 24.2434 23.5765 24.5817 23.9149L25.7484 25.0815C26.0867 25.4199 26.0867 25.9799 25.7484 26.3182C25.5734 26.4815 25.3517 26.5748 25.1301 26.5748Z" fill="white"/>
</svg>
